<svg xmlns="http://www.w3.org/2000/svg" viewBox="0 0 32 32" fill="none">
  <rect x="3.25" y="3.25" width="25.5" height="25.5" rx="8.25" stroke="rgba(255,255,255,0.22)" stroke-width="1.5"/>
  <path d="M12.35 8.75H20.45C22.3554 8.75 23.9 10.2946 23.9 12.2V13.55H20.6V12.95C20.6 12.2044 19.9956 11.6 19.25 11.6H13.55V20.4H19.25C19.9956 20.4 20.6 19.7956 20.6 19.05V18.45H23.9V19.8C23.9 21.7054 22.3554 23.25 20.45 23.25H12.35C10.4446 23.25 8.9 21.7054 8.9 19.8V12.2C8.9 10.2946 10.4446 8.75 12.35 8.75Z" fill="#F8FAFC"/>
  <path d="M16.1 13.95H24.5V17.05H16.1V13.95Z" fill="#8EA4C8"/>
</svg>
